<?xml version="1.0"?>
<svg xmlns="http://www.w3.org/2000/svg" xmlns:xlink="http://www.w3.org/1999/xlink" xmlns:svgjs="http://svgjs.com/svgjs" version="1.1" width="512" height="512" x="0" y="0" viewBox="0 0 64 64" style="enable-background:new 0 0 512 512" xml:space="preserve" class=""><g><g xmlns="http://www.w3.org/2000/svg" id="Health_insurance-2" data-name="Health insurance"><path d="M62,29H56.951c.014-.334.049-.664.049-1V10a1,1,0,0,0-.72-.96l-24-7a.988.988,0,0,0-.56,0l-24,7A1,1,0,0,0,7,10V28c0,.336.035.666.049,1H1v2H7.223a22.735,22.735,0,0,0,6.466,13.075h0l17.6,17.631a1,1,0,0,0,1.416,0l17.6-17.632A22.735,22.735,0,0,0,56.777,31H62ZM9,28V10.75L32,4.042,55,10.75V28c0,.336-.033.667-.049,1h-2c.017-.333.049-.664.049-1V13a1,1,0,0,0-.72-.96l-20-5.833a.988.988,0,0,0-.56,0l-20,5.833A1,1,0,0,0,11,13V28c0,.336.032.667.049,1h-2C9.033,28.667,9,28.336,9,28Zm8-2a9.01,9.01,0,0,1,9-9,8.916,8.916,0,0,1,5.4,1.812,1,1,0,0,0,1.2,0A8.916,8.916,0,0,1,38,17a9.01,9.01,0,0,1,9,9,10.6,10.6,0,0,1-.447,3H44.535l-3.7-5.555a1,1,0,0,0-1.746.149L36,30.538l-3.086-6.944A1.014,1.014,0,0,0,31.952,23a1,1,0,0,0-.9.683L28,32.838l-3.052-9.154a1,1,0,0,0-1.78-.239L19.465,29H17.447A10.6,10.6,0,0,1,17,26Zm3,5a1,1,0,0,0,.832-.445l2.866-4.3,3.354,10.06a1,1,0,0,0,1.9,0l3.186-9.554,2.952,6.644a1,1,0,0,0,1.828,0l3.262-7.34,2.992,4.489A1,1,0,0,0,44,31h1.774C42.554,37.554,33.961,41.96,32,42.9,30.039,41.96,21.446,37.554,18.226,31ZM31.6,44.916a.994.994,0,0,0,.8,0c.574-.251,12.054-5.37,15.578-13.916h2.738a16.822,16.822,0,0,1-4.658,8.842L32,53.922,17.939,39.838A16.8,16.8,0,0,1,13.284,31h2.738C19.546,39.546,31.026,44.665,31.6,44.916ZM48.632,29A12.62,12.62,0,0,0,49,26,11.013,11.013,0,0,0,38,15a10.876,10.876,0,0,0-6,1.792A10.876,10.876,0,0,0,26,15,11.013,11.013,0,0,0,15,26a12.62,12.62,0,0,0,.368,3H13.049c-.02-.333-.049-.664-.049-1V13.75L32,8.208,51,13.75V28c0,.336-.029.667-.049,1Zm.262,13.663L32,59.584,15.106,42.663A20.758,20.758,0,0,1,9.243,31h2.02a18.769,18.769,0,0,0,5.258,10.248v0l14.77,14.794a1,1,0,0,0,1.416,0l14.767-14.79A18.792,18.792,0,0,0,52.737,31h2.02A20.758,20.758,0,0,1,48.894,42.663Z" fill="#ffffff" data-original="#000000" style="" class=""/></g></g></svg>
