<?xml version="1.0"?>
<svg xmlns="http://www.w3.org/2000/svg" xmlns:xlink="http://www.w3.org/1999/xlink" xmlns:svgjs="http://svgjs.com/svgjs" version="1.1" width="512" height="512" x="0" y="0" viewBox="0 0 512 512" style="enable-background:new 0 0 512 512" xml:space="preserve"><g>
<g xmlns="http://www.w3.org/2000/svg">
	<g>
		<path d="M239.23,432.257l-15.77-47.309c-5.684-17.051-16.871-31.082-31.193-40.409C203.212,333.663,210,318.611,210,302    c0-33.084-26.916-60-60-60s-60,26.916-60,60c0,16.611,6.788,31.663,17.732,42.538c-14.322,9.327-25.509,23.358-31.193,40.409    l-15.77,47.309C57.537,441.956,64.765,452,75,452h150C235.224,452,242.466,441.966,239.23,432.257z M150,272    c16.542,0,30,13.458,30,30s-13.458,30-30,30s-30-13.458-30-30S133.458,272,150,272z M95.812,422L105,394.434    c6.467-19.4,24.551-32.434,45-32.434c20.449,0,38.533,13.034,45,32.434L204.188,422H95.812z" fill="#ffffff" data-original="#000000" style=""/>
	</g>
</g>
<g xmlns="http://www.w3.org/2000/svg">
	<g>
		<path d="M437,332H285c-8.284,0-15,6.716-15,15s6.716,15,15,15h152c8.284,0,15-6.716,15-15S445.284,332,437,332z" fill="#ffffff" data-original="#000000" style=""/>
	</g>
</g>
<g xmlns="http://www.w3.org/2000/svg">
	<g>
		<path d="M437,272H285c-8.284,0-15,6.716-15,15s6.716,15,15,15h152c8.284,0,15-6.716,15-15S445.284,272,437,272z" fill="#ffffff" data-original="#000000" style=""/>
	</g>
</g>
<g xmlns="http://www.w3.org/2000/svg">
	<g>
		<path d="M315,392h-30c-8.284,0-15,6.716-15,15s6.716,15,15,15h30c8.284,0,15-6.716,15-15S323.284,392,315,392z" fill="#ffffff" data-original="#000000" style=""/>
	</g>
</g>
<g xmlns="http://www.w3.org/2000/svg">
	<g>
		<path d="M437,392h-60c-8.284,0-15,6.716-15,15s6.716,15,15,15h60c8.284,0,15-6.716,15-15S445.284,392,437,392z" fill="#ffffff" data-original="#000000" style=""/>
	</g>
</g>
<g xmlns="http://www.w3.org/2000/svg">
	<g>
		<circle cx="255" cy="75" r="15" fill="#ffffff" data-original="#000000" style=""/>
	</g>
</g>
<g xmlns="http://www.w3.org/2000/svg">
	<g>
		<path d="M437,90H330V75c0-41.355-33.645-75-75-75c-41.355,0-75,33.645-75,75v15H75c-41.355,0-75,33.645-75,75    c0,11.79,0,260.647,0,272c0,41.355,33.645,75,75,75h362c41.355,0,75-33.645,75-75c0-11.278,0-260.24,0-272    C512,123.645,478.355,90,437,90z M210,75c0-24.813,20.187-45,45-45s45,20.187,45,45v45h-90V75z M482,437c0,24.813-20.187,45-45,45    H75c-24.813,0-45-20.187-45-45V210h452V437z M482,180H30v-15c0-24.813,20.187-45,45-45h105v15c0,8.284,6.716,15,15,15h120    c8.284,0,15-6.716,15-15v-15h107c24.813,0,45,20.187,45,45V180z" fill="#ffffff" data-original="#000000" style=""/>
	</g>
</g>
<g xmlns="http://www.w3.org/2000/svg">
</g>
<g xmlns="http://www.w3.org/2000/svg">
</g>
<g xmlns="http://www.w3.org/2000/svg">
</g>
<g xmlns="http://www.w3.org/2000/svg">
</g>
<g xmlns="http://www.w3.org/2000/svg">
</g>
<g xmlns="http://www.w3.org/2000/svg">
</g>
<g xmlns="http://www.w3.org/2000/svg">
</g>
<g xmlns="http://www.w3.org/2000/svg">
</g>
<g xmlns="http://www.w3.org/2000/svg">
</g>
<g xmlns="http://www.w3.org/2000/svg">
</g>
<g xmlns="http://www.w3.org/2000/svg">
</g>
<g xmlns="http://www.w3.org/2000/svg">
</g>
<g xmlns="http://www.w3.org/2000/svg">
</g>
<g xmlns="http://www.w3.org/2000/svg">
</g>
<g xmlns="http://www.w3.org/2000/svg">
</g>
</g></svg>
