<svg id="Capa_1" enable-background="new 0 0 512 512" height="512" viewBox="0 0 512 512" width="512" xmlns="http://www.w3.org/2000/svg"><g><path d="m224 504c-8.284 0-15-6.716-15-15v-113c0-8.284 6.716-15 15-15s15 6.716 15 15v113c0 8.284-6.716 15-15 15z" fill="#fed843"/><path d="m223.734 503.986c8.372.183 15.266-6.602 15.266-14.986v-113c0-8.284-6.716-15-15-15-.408 0-.266-6.749-.266 142.986z" fill="#fabe2c"/><path d="m128 504c-8.284 0-15-6.716-15-15v-145c0-8.284 6.716-15 15-15s15 6.716 15 15v145c0 8.284-6.716 15-15 15z" fill="#fabe2c"/><path d="m127.734 503.986c8.372.183 15.266-6.602 15.266-14.986v-145c0-8.284-6.716-15-15-15-.413 0-.266-8.269-.266 174.986z" fill="#ff9100"/><path d="m376 407c-90.437 0-141.47-24.486-143.598-25.529-5.142-2.519-8.402-7.745-8.402-13.471l.002-265.229c.222-55 44.815-100.142 99.809-101.71 20.289-.585 42.128 2.983 64.934 10.586 6.181 2.061 10.477 7.827 10.407 14.342-.069 6.487-4.149 12.143-10.329 14.095-.874.331-9.767 3.862-17.617 12.885-8.839 10.155-13.229 23.436-13.106 39.579 36.932 1.594 70.356-19.592 83.234-79.689 2.491-11.626 16.899-15.843 25.273-7.464.69.69 17.055 17.234 29.773 45.554 16.829 37.476 19.621 78.428 8.074 118.43-5.849 20.267-23.171 35.104-44.13 37.8-22.084 2.84-37.866 13.449-46.908 31.531-8.891 17.781-9.747 34.784-2.548 50.534 3.146 6.882 9.178 12.271 16.547 14.786 9.646 3.292 25.729 2.986 37.81-3.967 8.719-5.019 13.975-12.543 16.066-23.003 1.434-7.165 7.808-12.228 15.125-12.053 7.305.203 13.399 5.64 14.434 12.873.294 2.061 6.835 50.902-25.728 88.447-23.407 26.988-60.122 40.673-109.122 40.673z" fill="#fabe2c"/><path d="m223.241 359h-195.617c-20.564 0-33.029-22.676-23.21-40.656l43.853-80.288c-20.379 1.674-34.932-19.836-26.252-38.811 82.566-191.829 78.934-183.401 79.123-183.807 9.891-21.046 39.136-20.227 48.132.449l78.923 183.36c8.667 18.96-5.861 40.415-26.086 38.821l44.279 80.16c9.945 17.998-2.542 40.772-23.145 40.772zm-22.326-147.264c.001.001.001.002.001.002s0-.001-.001-.002zm-151.625.001c-.001 0-.001.001 0 0-.001.001-.001 0 0 0z" fill="#5ab267"/><path d="m223.241 359c20.634 0 33.073-22.804 23.145-40.771l-44.279-80.16c20.208 1.592 34.758-19.849 26.086-38.821l-78.923-183.361c-4.004-9.203-13.211-15.887-24.166-15.887l1.957 359z" fill="#288c64"/><path d="m323.84 353.86-33.29-60.26c16.253-2.27 25.703-19.992 18.76-35.189l-63.45-146.88c-8.017-18.772-34.96-19.784-44.06-.431-.043.102-5.732 13.26-63.64 147.311-6.986 15.292 2.609 33.029 18.91 35.21l-32.97 60.34c-8.932 16.373 2.431 37.04 21.25 37.04h157.3c18.858-.001 30.231-20.759 21.19-37.141z" fill="#8cd96b"/><path d="m302.65 391h-78.65v-293.99c9.33.09 17.62 5.471 21.67 14.09.483 1.13-6.442-14.921 63.64 147.311 6.957 15.228-2.538 32.924-18.76 35.189l33.29 60.261c9.047 16.393-2.344 37.139-21.19 37.139z" fill="#5ab267"/><path d="m497 512h-482c-8.284 0-15-6.716-15-15s6.716-15 15-15h482c8.284 0 15 6.716 15 15s-6.716 15-15 15z" fill="#c86e59"/><path d="m256 512h241c8.284 0 15-6.716 15-15s-6.716-15-15-15h-241z" fill="#a34f3e"/></g></svg>