<?xml version="1.0"?>
<svg xmlns="http://www.w3.org/2000/svg" xmlns:xlink="http://www.w3.org/1999/xlink" xmlns:svgjs="http://svgjs.com/svgjs" version="1.1" width="512" height="512" x="0" y="0" viewBox="0 0 512 512" style="enable-background:new 0 0 512 512" xml:space="preserve"><g><g xmlns="http://www.w3.org/2000/svg"><path d="m497 481.999h-258v-91h52.156c31.065 14.267 62.377 16.228 77.227 16.228 4.08 0 6.917-.148 8.165-.229 48.794-.196 85.354-13.956 108.664-40.899 32.463-37.521 25.931-86.173 25.637-88.226-1.036-7.231-7.132-12.666-14.436-12.867-.14-.004-.278-.006-.418-.006-7.128 0-13.299 5.031-14.704 12.059-2.092 10.461-7.348 17.985-16.067 23.003-12.079 6.951-28.163 7.256-37.812 3.961-7.365-2.512-13.394-7.898-16.54-14.778-7.203-15.757-6.348-32.759 2.545-50.536 9.038-18.078 24.817-28.687 46.896-31.53 20.971-2.696 38.297-17.539 44.138-37.808 11.548-40 8.756-80.95-8.072-118.424-12.718-28.319-29.082-44.862-29.772-45.553-3.885-3.887-9.586-5.332-14.854-3.779-5.271 1.557-9.268 5.87-10.419 11.243-7.125 33.249-20.826 56.471-40.724 69.019-15.592 9.833-32.136 11.127-42.511 10.673-.122-16.144 4.268-29.423 13.106-39.578 7.853-9.024 16.748-12.556 17.618-12.886 6.227-1.966 10.318-7.692 10.329-14.23.01-6.565-4.402-12.326-10.668-14.289-45.753-14.334-83.212-15.178-111.337-2.5-28.755 12.96-40.951 37.303-44.957 45.3-5.832 11.633-10.966 26.274-15.31 43.637-6.587 1.963-12.067 6.707-15.07 13.081-.069.147-.137.296-.201.445l-5.596 12.955-46.745-108.597c-.064-.15-.132-.3-.201-.447-4.474-9.524-13.658-15.44-23.967-15.44s-19.492 5.916-23.966 15.439c-.069.147-.137.297-.202.447l-78.921 183.358c-4.196 9.179-3.126 19.883 2.818 28.006 5.486 7.497 14.374 11.565 23.438 10.803l-43.854 80.29c-4.689 8.594-4.502 19.158.491 27.571 4.862 8.192 13.354 13.084 22.716 13.084h85.38l.699 123h-98.699c-8.284 0-15 6.716-15 15s6.716 15 15 15h482c8.284 0 15-6.716 15-15s-6.716-15-15-15zm-337.214-130.779c.006-.011.013-.021.019-.031l37.27-68.23c2.709-4.958 2.401-11.018-.795-15.677-3.197-4.659-8.746-7.119-14.341-6.384l-12.92 1.714 54.717-126.649 54.717 126.649-12.921-1.714c-5.613-.739-11.169 1.736-14.36 6.414-3.193 4.677-3.479 10.753-.74 15.71l43.081 77.977h-139.069zm99.225-283.413c6.807-13.586 23.524-46.962 90.139-35.187-11.957 13.448-24.772 37.209-20.033 75.118.768 6.14 5.226 11.179 11.227 12.688 1.604.401 39.663 9.606 75.782-12.871 20.177-12.559 35.473-32.119 45.683-58.354 13.425 23.102 28.056 62.536 13.819 111.853-2.528 8.772-10.041 15.197-19.143 16.367-31.683 4.081-56.507 21.081-69.899 47.867-16.382 32.752-10.672 59.639-2.996 76.428 6.561 14.349 19.004 25.538 34.135 30.697 14.365 4.903 36.304 5.553 55.691-2.938-2.723 5.897-6.326 11.763-11.082 17.214-17.477 20.029-46.533 30.227-86.364 30.309-.368.001-.771.018-1.139.046-.288.021-22.387 1.558-48.494-5.29 1.362-5.992.542-12.396-2.498-17.899l-33.288-60.252c6.374-.893 12.254-4.35 16.198-9.747 5.396-7.383 6.371-17.106 2.568-25.444 0 0-64.129-148.283-64.393-148.762 4.034-17.165 8.762-31.221 14.087-41.843zm-170.267 158.722c2.708-4.958 2.401-11.017-.794-15.675s-8.729-7.126-14.338-6.386l-22.468 2.973 73.957-171.821 54.554 126.738-41.503 96.056c-3.801 8.337-2.826 18.062 2.57 25.444 3.975 5.438 9.914 8.905 16.344 9.765l-19.323 35.376h-104.967zm54.256 164.344c.776.075 1.558.126 2.35.126h63.65v91h-65.295z" fill="#ffffff" data-original="#000000" style=""/></g></g></svg>
